<svg width="109" height="104" viewBox="0 0 109 104" fill="none" xmlns="http://www.w3.org/2000/svg">
<g clip-path="url(#clip0_1_13)">
<path d="M50.8485 1.00533C51.8766 0.353182 53.0837 0.00527954 54.3183 0.00527954C55.5529 0.00527954 56.76 0.353182 57.7882 1.00533C63.1395 4.21417 68.2728 7.74277 73.1572 11.57C73.1572 11.57 74.4879 12.4497 74.5242 10.9633C74.3944 9.03689 74.5149 7.10253 74.883 5.20433C75.0827 4.7115 75.4326 4.28708 75.8876 3.98583C76.3425 3.68459 76.8817 3.52036 77.4354 3.51433C77.4354 3.51433 83.4713 3.80033 87.3045 4.29C89.0167 4.50666 90.3519 5.81533 90.5336 7.45333C90.5336 7.45333 92.9997 23.14 93.5538 28.795C93.5538 28.795 94.0307 31.6723 98.3998 36.5517C98.3998 36.5517 107.27 48.4033 108.301 50.674C108.301 50.674 110.362 54.7733 105.925 55.328C105.925 55.328 97.8275 56.108 97.0463 56.2813C96.5231 56.3423 96.0454 56.5955 95.7147 56.9871C95.384 57.3787 95.2263 57.8779 95.2751 58.3787C95.2751 58.3787 94.8482 85.6613 92.7545 98.7653C92.7545 98.7653 92.2049 103.965 89.2029 103.848C89.2029 103.848 80.878 103.593 78.9432 103.645C78.9432 103.645 78.1121 103.645 78.2347 102.579C78.2347 102.579 82.4767 60.0383 79.6018 38.532C79.6018 38.532 79.4746 35.7587 77.2583 35.1433C77.2583 35.1433 75.2372 34.3633 73.3025 36.8377C64.9055 48.0516 60.3091 61.4501 60.1317 75.231C60.1317 75.231 59.9046 82.004 60.9855 83.694C60.9855 83.694 61.6577 84.8813 65.1048 85.15L69.4648 85.7133C69.4648 85.7133 70.2641 85.7133 70.1915 86.723C70.1915 86.723 69.2014 99.203 68.9198 101.426C68.9032 101.931 68.7941 102.43 68.5973 102.899C68.5973 102.899 68.4384 103.324 67.0713 103.272C67.0713 103.272 47.8328 103.142 45.6665 103.272C45.6665 103.272 44.7581 103.272 44.5674 102.817C44.3721 102.358 43.2321 86.71 43.2685 84.4913C43.252 84.2664 43.308 84.0421 43.4289 83.8485C43.5499 83.6549 43.73 83.5011 43.9452 83.408C45.4124 82.5235 46.6525 81.3356 47.5739 79.9323C48.4952 78.5289 49.0742 76.9459 49.268 75.3003C49.5042 72.9228 49.5405 70.5452 49.377 68.1677C49.377 68.1677 50.0855 44.239 50.2626 40.391C50.2626 40.391 50.4034 39.091 48.6276 38.8527C48.2019 38.7576 47.754 38.8274 47.3821 39.0466C47.0101 39.2659 46.7443 39.6169 46.6429 40.0227V40.1527C46.6429 40.2913 45.3985 55.939 45.6301 62.1703C45.6301 62.1703 46.057 66.2523 43.0959 66.3347C43.0959 66.3347 40.2165 66.7463 40.0757 63.3447C40.0757 63.3447 40.2891 47.996 40.9976 40.4127C41.0013 39.9935 40.8416 39.588 40.5495 39.2749C40.2575 38.9618 39.8539 38.7635 39.4171 38.7183C38.9651 38.6587 38.5065 38.7678 38.1367 39.0229C37.767 39.278 37.5147 39.6594 37.4324 40.0877C37.4251 40.1322 37.4251 40.1775 37.4324 40.222C37.4324 40.222 36.188 54.912 36.4196 62.6643C36.4196 62.6643 36.7739 66.4257 33.631 66.287C33.631 66.287 31.006 66.573 30.8606 63.2363C30.8606 63.2363 31.5737 42.2197 31.769 40.599C31.7486 40.1964 31.5782 39.8141 31.2884 39.5209C30.9985 39.2277 30.6085 39.0429 30.1885 39H30.0113C29.5672 38.9638 29.1251 39.0886 28.7733 39.3497C28.4214 39.6107 28.1856 39.9887 28.1129 40.4083V40.56C28.1129 40.56 26.9412 65.6933 27.1001 73.073C27.1001 73.073 26.9957 80.6607 32.868 83.7417C32.868 83.7417 33.74 84.2183 33.7582 84.942C33.7582 84.942 34.4167 98.2713 35.0162 102.574C35.0162 102.574 35.2297 103.606 34.2714 103.606L19.4883 104C18.7135 103.996 17.9696 103.709 17.4084 103.2C16.8472 102.69 16.5109 101.995 16.4681 101.257C14.5545 87.1344 13.6426 72.9045 13.7385 58.6647C13.7901 58.138 13.6381 57.6116 13.311 57.1845C12.9838 56.7575 12.5043 56.4593 11.9628 56.3463C11.9628 56.3463 4.40087 55.6833 2.57058 55.2457C2.10055 55.1286 1.66534 54.9092 1.29914 54.6047C0.932931 54.3002 0.645696 53.9188 0.459986 53.4905C0.274276 53.0622 0.195145 52.5987 0.228808 52.1363C0.262471 51.674 0.408011 51.2253 0.654 50.8257C12.9396 30.6053 30.156 13.5142 50.8485 1.00533Z" fill="#FF2625"/>
</g>
<defs>
<clipPath id="clip0_1_13">
<rect width="109" height="104" fill="white"/>
</clipPath>
</defs>
</svg>
