<svg width="130" height="130" viewBox="0 0 130 130" fill="none" xmlns="http://www.w3.org/2000/svg">
<path d="M10.1562 65C10.167 54.7676 14.2366 44.9574 21.472 37.722C28.7074 30.4866 38.5176 26.417 48.75 26.4063H99.0234L97.2359 24.6238C96.6691 24.057 96.2195 23.3841 95.9127 22.6434C95.6059 21.9028 95.448 21.1091 95.448 20.3074C95.448 19.5058 95.6059 18.712 95.9127 17.9714C96.2195 17.2308 96.6691 16.5579 97.2359 15.991C97.8028 15.4242 98.4757 14.9745 99.2163 14.6678C99.9569 14.361 100.751 14.2031 101.552 14.2031C102.354 14.2031 103.148 14.361 103.888 14.6678C104.629 14.9745 105.302 15.4242 105.869 15.991L118.056 28.1785C118.624 28.7446 119.075 29.4174 119.383 30.1581C119.69 30.8988 119.849 31.6929 119.849 32.4949C119.849 33.2969 119.69 34.0911 119.383 34.8318C119.075 35.5725 118.624 36.2452 118.056 36.8113L105.869 48.9988C104.724 50.1436 103.171 50.7867 101.552 50.7867C99.9334 50.7867 98.3807 50.1436 97.2359 48.9988C96.0912 47.854 95.448 46.3014 95.448 44.6824C95.448 43.0635 96.0912 41.5108 97.2359 40.366L99.0234 38.5938H48.75C41.7491 38.6018 35.0373 41.3865 30.0869 46.3369C25.1365 51.2873 22.3518 57.9991 22.3437 65C22.3437 66.6162 21.7017 68.1661 20.5589 69.3089C19.4161 70.4517 17.8662 71.0938 16.25 71.0938C14.6338 71.0938 13.0839 70.4517 11.9411 69.3089C10.7983 68.1661 10.1562 66.6162 10.1562 65ZM113.75 58.9063C112.134 58.9063 110.584 59.5483 109.441 60.6911C108.298 61.8339 107.656 63.3838 107.656 65C107.648 72.0009 104.864 78.7128 99.9131 83.6631C94.9627 88.6135 88.2509 91.3982 81.25 91.4063H30.9766L32.7641 89.6238C33.3309 89.057 33.7805 88.384 34.0873 87.6434C34.3941 86.9028 34.552 86.1091 34.552 85.3074C34.552 84.5058 34.3941 83.712 34.0873 82.9714C33.7805 82.2308 33.3309 81.5579 32.7641 80.991C32.1972 80.4242 31.5243 79.9745 30.7837 79.6678C30.0431 79.361 29.2493 79.2031 28.4477 79.2031C27.646 79.2031 26.8522 79.361 26.1116 79.6678C25.371 79.9745 24.6981 80.4242 24.1312 80.991L11.9437 93.1785C11.3756 93.7446 10.9249 94.4174 10.6173 95.1581C10.3098 95.8988 10.1514 96.6929 10.1514 97.4949C10.1514 98.2969 10.3098 99.0911 10.6173 99.8318C10.9249 100.572 11.3756 101.245 11.9437 101.811L24.1312 113.999C24.6981 114.566 25.371 115.015 26.1116 115.322C26.8522 115.629 27.646 115.787 28.4477 115.787C29.2493 115.787 30.0431 115.629 30.7837 115.322C31.5243 115.015 32.1972 114.566 32.7641 113.999C33.3309 113.432 33.7805 112.759 34.0873 112.018C34.3941 111.278 34.552 110.484 34.552 109.682C34.552 108.881 34.3941 108.087 34.0873 107.346C33.7805 106.606 33.3309 105.933 32.7641 105.366L30.9766 103.594H81.25C91.4824 103.583 101.293 99.5134 108.528 92.278C115.763 85.0426 119.833 75.2324 119.844 65C119.844 63.3838 119.202 61.8339 118.059 60.6911C116.916 59.5483 115.366 58.9063 113.75 58.9063Z" fill="#FF2625"/>
</svg>
