<svg width="130" height="130" viewBox="0 0 130 130" fill="none" xmlns="http://www.w3.org/2000/svg">
<g clip-path="url(#clip0_1_9)">
<path fill-rule="evenodd" clip-rule="evenodd" d="M62.2917 21.6667C62.2917 23.8216 63.1477 25.8882 64.6714 27.4119C66.1952 28.9356 68.2618 29.7917 70.4167 29.7917H88.7196L64.6696 53.8417C63.5344 54.9783 62.7616 56.4259 62.4489 58.0015C62.1361 59.5772 62.2975 61.2102 62.9125 62.6942C63.5276 64.1782 64.5687 65.4465 65.9044 66.339C67.24 67.2315 68.8103 67.708 70.4167 67.7083H108.333C109.4 67.7083 110.457 67.4982 111.443 67.0899C112.428 66.6815 113.324 66.0831 114.079 65.3286C114.833 64.5741 115.432 63.6784 115.84 62.6926C116.248 61.7069 116.458 60.6503 116.458 59.5833C116.458 58.5163 116.248 57.4598 115.84 56.474C115.432 55.4883 114.833 54.5926 114.079 53.8381C113.324 53.0836 112.428 52.4851 111.443 52.0768C110.457 51.6685 109.4 51.4583 108.333 51.4583H90.0304L114.08 27.4083C115.216 26.2717 115.988 24.8241 116.301 23.2485C116.614 21.6728 116.453 20.0398 115.837 18.5558C115.222 17.0718 114.181 15.8035 112.846 14.911C111.51 14.0185 109.94 13.542 108.333 13.5417H70.4167C68.2618 13.5417 66.1952 14.3977 64.6714 15.9214C63.1477 17.4452 62.2917 19.5118 62.2917 21.6667ZM21.6667 56.875C19.5118 56.875 17.4452 56.019 15.9214 54.4952C14.3977 52.9715 13.5417 50.9049 13.5417 48.75C13.5417 46.5951 14.3977 44.5285 15.9214 43.0048C17.4452 41.481 19.5118 40.625 21.6667 40.625H48.75C50.3559 40.6264 51.9254 41.1037 53.2603 41.9966C54.5951 42.8895 55.6354 44.1579 56.2498 45.6417C56.8641 47.1254 57.025 48.758 56.7121 50.3331C56.3992 51.9083 55.6265 53.3554 54.4917 54.4917L41.2858 67.7083H48.75C50.9049 67.7083 52.9715 68.5644 54.4952 70.0881C56.019 71.6118 56.875 73.6785 56.875 75.8333C56.875 77.9882 56.019 80.0548 54.4952 81.5786C52.9715 83.1023 50.9049 83.9583 48.75 83.9583H21.6667C20.0607 83.9569 18.4912 83.4796 17.1564 82.5868C15.8216 81.6939 14.7813 80.4254 14.1669 78.9417C13.5525 77.4579 13.3916 75.8253 13.7045 74.2502C14.0175 72.675 14.7901 71.2279 15.925 70.0917L29.1362 56.875H21.6667ZM65 94.7917C62.8451 94.7917 60.7785 93.9356 59.2548 92.4119C57.731 90.8882 56.875 88.8216 56.875 86.6667C56.875 84.5118 57.731 82.4452 59.2548 80.9214C60.7785 79.3977 62.8451 78.5417 65 78.5417H86.6667C88.2726 78.5431 89.8421 79.0204 91.1769 79.9133C92.5118 80.8061 93.5521 82.0746 94.1664 83.5583C94.7808 85.0421 94.9417 86.6747 94.6288 88.2498C94.3159 89.825 93.5432 91.2721 92.4083 92.4083L84.6137 100.208H86.6667C88.8215 100.208 90.8882 101.064 92.4119 102.588C93.9356 104.112 94.7917 106.178 94.7917 108.333C94.7917 110.488 93.9356 112.555 92.4119 114.079C90.8882 115.602 88.8215 116.458 86.6667 116.458H65C63.3941 116.457 61.8246 115.98 60.4897 115.087C59.1549 114.194 58.1146 112.925 57.5002 111.442C56.8858 109.958 56.725 108.325 57.0379 106.75C57.3508 105.175 58.1235 103.728 59.2583 102.592L67.0529 94.7917H65Z" fill="#FF2625"/>
</g>
<defs>
<clipPath id="clip0_1_9">
<rect width="130" height="130" fill="white"/>
</clipPath>
</defs>
</svg>
