<svg width="130" height="130" viewBox="0 0 130 130" fill="none" xmlns="http://www.w3.org/2000/svg">
<path d="M44.0182 109.626C44.4567 110.102 44.6899 110.731 44.6671 111.378C44.6442 112.024 44.3673 112.635 43.8963 113.079L38.6013 118.03C38.1284 118.469 37.5006 118.703 36.8556 118.679C36.2106 118.656 35.6013 118.378 35.1614 117.905L4.32481 84.6725C3.8866 84.1967 3.65385 83.5673 3.67713 82.9209C3.70041 82.2745 3.97784 81.6634 4.44914 81.2204L9.75151 76.2764C9.98548 76.0586 10.2601 75.8891 10.5596 75.7774C10.8591 75.6658 11.1777 75.6143 11.4972 75.6258C11.8166 75.6374 12.1307 75.7117 12.4214 75.8447C12.7121 75.9777 12.9737 76.1666 13.1913 76.4008L44.0182 109.626ZM83.3654 47.0951C83.8036 47.5709 84.0364 48.2003 84.0131 48.8467C83.9898 49.4931 83.7124 50.1042 83.2411 50.5472L49.9154 81.6788C49.4426 82.118 48.8147 82.3517 48.1698 82.3284C47.5248 82.3051 46.9154 82.0267 46.4756 81.5544L38.5208 72.9707C38.0826 72.495 37.8498 71.8655 37.8731 71.2191C37.8964 70.5727 38.1738 69.9617 38.6451 69.5187L71.9635 38.3871C72.1973 38.1693 72.4717 37.9998 72.771 37.8882C73.0703 37.7766 73.3887 37.7251 73.708 37.7367C74.0272 37.7482 74.3411 37.8226 74.6315 37.9555C74.922 38.0884 75.1835 38.2773 75.4009 38.5114L83.3654 47.0951ZM55.3567 99.0291C56.2685 100.012 56.2124 101.564 55.2324 102.481L49.93 107.43C49.6961 107.648 49.4215 107.817 49.1219 107.929C48.8224 108.041 48.5038 108.092 48.1844 108.081C47.8649 108.069 47.5509 107.995 47.2602 107.862C46.9695 107.729 46.7078 107.54 46.4902 107.306L15.6707 74.0726C15.2321 73.5972 14.999 72.9679 15.0218 72.3215C15.0446 71.6752 15.3216 71.0639 15.7925 70.6206L21.0852 65.6741C21.558 65.2349 22.1858 65.0012 22.8308 65.0245C23.4758 65.0478 24.0851 65.3262 24.525 65.7985L55.3567 99.0291ZM106.706 48.2873C107.143 48.7633 107.376 49.393 107.352 50.0393C107.328 50.6857 107.05 51.2966 106.579 51.7393L101.279 56.6882C100.806 57.1279 100.178 57.362 99.5325 57.3392C98.8872 57.3163 98.2772 57.0384 97.8366 56.5663L67.0122 23.3405C66.5731 22.8654 66.3395 22.236 66.3623 21.5894C66.3851 20.9429 66.6625 20.3315 67.1341 19.8885L72.4486 14.9275C72.6824 14.7097 72.9568 14.5402 73.2561 14.4286C73.5555 14.317 73.8739 14.2655 74.1931 14.277C74.5124 14.2886 74.8262 14.3629 75.1167 14.4959C75.4072 14.6288 75.6686 14.8177 75.886 15.0518L106.706 48.2873ZM118.027 37.7069C118.465 38.1833 118.697 38.8131 118.674 39.4597C118.651 40.1063 118.374 40.7176 117.903 41.1614L112.613 46.1078C112.379 46.3257 112.105 46.4954 111.805 46.6072C111.506 46.719 111.188 46.7707 110.869 46.7594C110.549 46.7481 110.235 46.674 109.945 46.5412C109.654 46.4085 109.393 46.2198 109.175 45.9859L78.3556 12.7456C77.9175 12.2694 77.6847 11.6399 77.7075 10.9933C77.7303 10.3467 78.0069 9.73516 78.4775 9.2911L83.7725 4.33491C84.0058 4.1168 84.2798 3.94689 84.5789 3.83493C84.8779 3.72297 85.1962 3.67116 85.5153 3.68249C85.8345 3.69382 86.1482 3.76805 86.4386 3.90092C86.729 4.0338 86.9903 4.22271 87.2075 4.4568L118.027 37.7069Z" fill="#FF2625"/>
</svg>
